<svg xmlns="http://www.w3.org/2000/svg" xmlns:xlink="http://www.w3.org/1999/xlink" width="500" zoomAndPan="magnify"
     viewBox="0 0 375 374.999991" height="500" preserveAspectRatio="xMidYMid meet" version="1.0">
    <defs>
        <clipPath id="0370ec3b18">
            <path d="M 270 90 L 306 90 L 306 219.75 L 270 219.75 Z M 270 90 " clip-rule="nonzero"/>
        </clipPath>
        <clipPath id="239c0f338a">
            <path d="M 0 177.253906 L 355.484375 177.253906 L 355.484375 289.257812 L 0 289.257812 Z M 0 177.253906 "
                  clip-rule="nonzero"/>
        </clipPath>
        <clipPath id="6f84de2013">
            <path d="M 0 172.34375 L 355.484375 172.34375 L 355.484375 284 L 0 284 Z M 0 172.34375 "
                  clip-rule="nonzero"/>
        </clipPath>
    </defs>
    <g clip-path="url(#0370ec3b18)">
        <path fill="#00adb5"
              d="M 275.613281 216.4375 C 275.128906 218.425781 273.585938 219.75 272.175781 219.40625 C 270.761719 219.058594 270.011719 217.171875 270.492188 215.183594 L 300.304688 93.265625 C 300.789062 91.277344 302.328125 89.953125 303.742188 90.296875 C 305.15625 90.644531 305.90625 92.53125 305.421875 94.519531 L 275.613281 216.4375 "
              fill-opacity="1" fill-rule="nonzero"/>
    </g>
    <path fill="#393e46"
          d="M 365.808594 127.359375 C 365.867188 127.15625 365.925781 126.953125 365.980469 126.75 C 374.957031 92.863281 352.140625 57.351562 315.027344 47.425781 C 277.914062 37.5 240.550781 56.921875 231.578125 90.808594 C 231.523438 91.015625 231.476562 91.21875 231.425781 91.425781 L 365.808594 127.359375 "
          fill-opacity="1" fill-rule="nonzero"/>
    <path fill="#eeeeee"
          d="M 269.6875 101.683594 C 273.660156 55.15625 315.554688 48.457031 314.492188 48.246094 C 288.753906 43.117188 252.769531 63.105469 242.121094 94.308594 C 242.058594 94.5 269.671875 101.882812 269.6875 101.683594 "
          fill-opacity="1" fill-rule="nonzero"/>
    <path fill="#eeeeee"
          d="M 324.03125 116.171875 C 345.148438 73.285156 314.59375 47.980469 315.597656 48.320312 C 339.84375 56.558594 358.46875 90.617188 350.992188 123.339844 C 350.945312 123.535156 323.941406 116.355469 324.03125 116.171875 "
          fill-opacity="1" fill-rule="nonzero"/>
    <path fill="#00adb5"
          d="M 314.535156 113.644531 C 335.777344 70.835938 314.832031 48.574219 315.675781 49.210938 C 333.242188 62.582031 349.011719 88.175781 341.414062 120.855469 C 341.371094 121.050781 314.441406 113.828125 314.535156 113.644531 "
          fill-opacity="1" fill-rule="nonzero"/>
    <path fill="#00adb5"
          d="M 284.476562 105.542969 C 286.972656 57.8125 316.144531 48.703125 315.097656 48.847656 C 293.234375 51.863281 266.9375 66.417969 257.519531 98.617188 C 257.460938 98.8125 284.46875 105.746094 284.476562 105.542969 "
          fill-opacity="1" fill-rule="nonzero"/>
    <path fill="#eeeeee"
          d="M 320.941406 50.375 C 320.628906 52.222656 317.773438 53.277344 314.566406 52.738281 C 311.355469 52.191406 309.007812 50.253906 309.324219 48.410156 C 309.632812 46.558594 312.488281 45.503906 315.695312 46.046875 C 318.902344 46.59375 321.25 48.527344 320.941406 50.375 "
          fill-opacity="1" fill-rule="nonzero"/>
    <path fill="#00adb5"
          d="M 231.425781 91.425781 C 231.425781 91.425781 230.25 96.898438 234.402344 98.621094 C 238.558594 100.335938 242.121094 94.308594 242.121094 94.308594 L 231.425781 91.425781 "
          fill-opacity="1" fill-rule="nonzero"/>
    <path fill="#393e46"
          d="M 242.121094 94.308594 C 242.121094 94.308594 241.132812 100.292969 247.035156 102.730469 C 252.933594 105.164062 257.542969 98.503906 257.542969 98.503906 L 242.121094 94.308594 "
          fill-opacity="1" fill-rule="nonzero"/>
    <path fill="#00adb5"
          d="M 350.988281 123.339844 C 350.988281 123.339844 349.710938 129.296875 355.613281 131.730469 C 361.511719 134.167969 365.808594 127.359375 365.808594 127.359375 L 350.988281 123.339844 "
          fill-opacity="1" fill-rule="nonzero"/>
    <path fill="#393e46"
          d="M 341.417969 120.835938 C 341.417969 120.835938 340.570312 125.800781 344.410156 127.441406 C 348.25 129.085938 350.992188 123.339844 350.992188 123.339844 L 341.417969 120.835938 "
          fill-opacity="1" fill-rule="nonzero"/>
    <path fill="#eeeeee"
          d="M 257.519531 98.617188 C 257.519531 98.617188 256.539062 104.605469 267.011719 108.855469 C 277.484375 113.105469 284.476562 105.542969 284.476562 105.542969 L 257.519531 98.617188 "
          fill-opacity="1" fill-rule="nonzero"/>
    <path fill="#00adb5"
          d="M 284.476562 105.542969 C 284.476562 105.542969 283.5625 111.5625 295.34375 116.492188 C 307.125 121.417969 314.570312 113.6875 314.570312 113.6875 L 284.476562 105.542969 "
          fill-opacity="1" fill-rule="nonzero"/>
    <path fill="#eeeeee"
          d="M 314.535156 113.644531 C 314.535156 113.644531 313.871094 119.097656 324.417969 123.515625 C 334.96875 127.933594 341.414062 120.855469 341.414062 120.855469 L 314.535156 113.644531 "
          fill-opacity="1" fill-rule="nonzero"/>
    <path fill="#00aed8"
          d="M 303.261719 180.121094 L 52.300781 180.121094 L 5.234375 283.269531 L 350.332031 283.269531 L 303.261719 180.121094 "
          fill-opacity="1" fill-rule="nonzero"/>
    <path fill="#44d2ff"
          d="M 291.886719 197.191406 L 48.734375 197.191406 L 5.410156 282.015625 L 327.023438 282.015625 L 291.886719 197.191406 "
          fill-opacity="1" fill-rule="nonzero"/>
    <path fill="#a9edff"
          d="M 299.390625 195.113281 C 300.078125 195.296875 300.707031 195.492188 301.207031 195.738281 C 302.332031 196.292969 301.96875 197.992188 300.722656 198.109375 C 293.621094 198.761719 285.308594 196.816406 279.011719 193.546875 C 278.394531 193.226562 278.363281 192.363281 278.949219 191.988281 C 284.847656 188.199219 294.566406 193.808594 299.390625 195.113281 Z M 295.335938 201.179688 C 294.28125 201.167969 292.695312 201.722656 291.730469 202.179688 C 290.585938 202.71875 288.484375 202.601562 287.039062 201.945312 C 282.464844 199.863281 279.03125 197.144531 284.6875 197.671875 C 289.703125 198.140625 294.824219 198.226562 299.863281 198.820312 C 300.578125 198.90625 300.878906 199.796875 300.355469 200.292969 C 299.367188 201.238281 297.410156 201.207031 295.335938 201.179688 Z M 298.335938 208.789062 C 288.804688 209.886719 278.917969 209.484375 269.867188 206.160156 C 269.042969 205.859375 268.8125 204.808594 269.390625 204.148438 C 276.273438 196.308594 289.996094 203.40625 298.5625 207.367188 C 299.25 207.683594 299.082031 208.703125 298.335938 208.789062 Z M 306.835938 210.707031 C 307.636719 210.898438 307.953125 211.90625 307.371094 212.488281 C 300.132812 219.753906 285.46875 218.023438 276.449219 217.324219 C 274.492188 217.171875 272.929688 216.351562 273.007812 215.527344 C 273.40625 211.414062 272.636719 209.578125 285.992188 210.046875 C 294.84375 210.492188 298.386719 208.695312 306.835938 210.707031 Z M 262.925781 210.078125 C 261.96875 209.6875 261.019531 209.351562 260.199219 208.972656 C 258.855469 208.359375 259.066406 207.417969 260.574219 207.136719 C 267.308594 205.886719 273.214844 206.472656 272.882812 211.167969 C 268.550781 213.796875 266.488281 213.488281 262.925781 210.078125 Z M 263.566406 221.636719 C 253.511719 224.46875 244.285156 220.179688 235.085938 215.238281 C 233.609375 214.445312 234.125 213.335938 236.132812 213.085938 C 243.375 212.191406 254.273438 212.320312 260.972656 212.753906 C 262.703125 212.863281 264.402344 213.277344 265.984375 213.992188 C 270.386719 215.992188 272.941406 218.992188 263.566406 221.636719 Z M 272.515625 225.476562 C 274 229.15625 273.859375 232.34375 269.730469 235.566406 C 263.277344 241.175781 242.292969 236 250.894531 231.34375 C 252.523438 229.765625 251.210938 228.109375 249.421875 226.433594 C 247.96875 225.074219 249.761719 223.6875 253.035156 223.605469 C 258.613281 223.464844 263.984375 223.296875 269.882812 224.167969 C 271.230469 224.367188 272.28125 224.898438 272.515625 225.476562 Z M 275.074219 231.976562 C 275.359375 230.292969 275.523438 228.304688 274.984375 226.375 C 274.667969 225.234375 275.527344 224.320312 278.183594 224.683594 C 288.9375 226.140625 283.167969 228.804688 292.085938 231.589844 C 293.734375 232.101562 293.414062 233.113281 291.578125 233.152344 C 287.21875 233.238281 282.757812 233.078125 278.40625 233.3125 C 276.691406 233.40625 274.949219 232.714844 275.074219 231.976562 Z M 291.773438 226.574219 C 293.839844 225.890625 300.519531 225.046875 305.058594 225.511719 C 306.996094 225.707031 308.605469 226.464844 308.957031 227.292969 C 311.183594 232.578125 305.929688 233.523438 299.414062 232.554688 C 292.898438 231.585938 285.25 228.734375 291.773438 226.574219 Z M 303.363281 242.726562 C 303.871094 243.164062 304.214844 243.632812 304.273438 244.097656 C 304.683594 247.289062 300.792969 246.726562 293.664062 246.6875 C 284.1875 249.082031 279.792969 247.417969 279.203125 242.457031 C 271.121094 235.878906 268.597656 236.179688 283.097656 233.394531 C 291.800781 233.109375 297.417969 237.636719 303.363281 242.726562 Z M 320.976562 255.851562 C 322.097656 256.285156 322.113281 257.058594 321 257.277344 C 311.082031 259.226562 300.386719 258.851562 291.070312 254.921875 C 289.402344 254.214844 288.695312 253.132812 289.210938 252.253906 C 291.742188 247.917969 294.867188 246.246094 306.699219 249.414062 C 311.484375 251.652344 315.816406 253.847656 320.976562 255.851562 Z M 294.710938 262.617188 C 291.664062 263.472656 288.65625 262.773438 286.367188 260.894531 C 283.179688 258.277344 269.929688 255.597656 283.257812 255.460938 C 291.601562 255.375 299.886719 257.792969 294.710938 262.617188 Z M 271.726562 260.277344 C 268 260.3125 250.171875 264.269531 252.980469 257.355469 C 262.265625 254.859375 274.503906 255.914062 282.273438 259.832031 C 286.042969 261.734375 278.710938 260.210938 271.726562 260.277344 Z M 247.164062 260.546875 C 248.003906 261.382812 253.890625 265.5625 251.417969 265.828125 C 243.070312 266.730469 232.269531 262.15625 223.265625 260.046875 C 216.3125 258.417969 211.351562 255.621094 210.058594 252.308594 C 209.996094 252.148438 209.949219 251.980469 210.109375 251.847656 C 210.265625 251.710938 210.59375 251.632812 210.898438 251.578125 C 219.191406 250.089844 228.441406 251.433594 236.789062 251.441406 C 240.457031 251.441406 244.140625 251.566406 247.191406 252.925781 C 249.496094 253.957031 251.894531 255.136719 250.742188 256.5625 C 249.683594 257.867188 245.421875 258.832031 247.164062 260.546875 Z M 232.195312 269.875 C 227.878906 272.980469 223.574219 267.742188 215.65625 266.933594 C 208.914062 266.246094 202.894531 264.984375 200.035156 263.058594 C 198.394531 261.953125 196.71875 259.769531 202.121094 260.082031 C 210.769531 260.582031 220.792969 260.042969 229.097656 263.308594 C 230.691406 263.933594 238.09375 265.628906 232.195312 269.875 Z M 173.507812 251.214844 C 172.648438 250.277344 176.320312 250.257812 177.589844 250.085938 C 179.734375 249.800781 181.75 249.382812 183.617188 248.855469 C 184.921875 248.484375 188.082031 246.65625 189.878906 247.226562 C 190.21875 247.335938 190.4375 247.5 190.644531 247.660156 C 192.078125 248.738281 193.125 249.542969 195.464844 250.300781 C 197.363281 250.914062 199.449219 251.425781 201.363281 252.042969 C 205.074219 253.242188 208.867188 254.5 211.789062 256.179688 C 213.824219 257.34375 212.75 259.054688 209.65625 259.390625 C 206.242188 259.765625 196.460938 259.394531 194.132812 258.238281 C 185.519531 256.152344 175.761719 253.660156 173.507812 251.214844 Z M 168.226562 244.628906 C 167.617188 243.199219 167.820312 241.707031 168.664062 240.652344 C 171.84375 236.691406 185.921875 240.507812 188.695312 242.914062 C 190.765625 244.707031 183.96875 248.148438 179.90625 248.644531 C 172.988281 249.492188 169.304688 247.152344 168.226562 244.628906 Z M 171.257812 253.679688 C 167.078125 257.296875 157.890625 253.835938 152.605469 251.332031 C 151.484375 250.800781 151.085938 250.035156 151.5625 249.332031 C 155.980469 242.835938 166.429688 247.476562 171.285156 251.757812 C 171.964844 252.359375 171.953125 253.074219 171.257812 253.679688 Z M 158.636719 257.144531 C 157.601562 257.863281 155.976562 258.394531 154.246094 258.722656 C 151.03125 259.324219 146.4375 259.261719 145.015625 257.585938 C 143.085938 255.316406 142.863281 254.683594 140.53125 253.921875 C 139.035156 253.425781 139.402344 252.351562 141.164062 252.027344 C 144.222656 251.46875 147.339844 251.300781 150.34375 251.914062 C 153.488281 252.554688 156.035156 253.710938 158.832031 254.636719 C 160.511719 255.195312 159.625 256.457031 158.636719 257.144531 Z M 147.5625 268.859375 C 148.964844 269.246094 148.269531 270.328125 146.644531 270.257812 C 141.039062 270.003906 141.359375 268.503906 133.578125 265.71875 C 129.847656 264.378906 125.601562 263.863281 121.273438 263.253906 C 118.980469 262.933594 116.070312 262.410156 115.414062 261.195312 C 114.792969 260.046875 116.21875 258.324219 116.992188 257.21875 C 118.726562 254.75 122.042969 253.132812 127.054688 252.148438 C 128.824219 251.796875 130.804688 251.863281 132.382812 252.300781 C 140.066406 254.433594 141.453125 254.648438 142.734375 260.445312 C 143.769531 265.128906 142.015625 267.335938 147.5625 268.859375 Z M 126.648438 269.09375 C 119.976562 268.671875 111.628906 267.777344 109.890625 265.339844 C 109.160156 264.316406 111.015625 263.230469 113.277344 263.332031 C 121.191406 263.699219 128.558594 263.9375 129.910156 267.457031 C 130.257812 268.367188 128.574219 269.214844 126.648438 269.09375 Z M 85.410156 263.832031 C 84.480469 263.210938 84.121094 262.320312 84.414062 261.476562 C 85.058594 259.617188 87.011719 257.832031 87.78125 256.167969 C 88.457031 254.699219 87.152344 253.925781 88.378906 252.601562 C 88.742188 252.207031 91.175781 251.683594 91.953125 251.480469 C 93.171875 251.171875 94.433594 250.914062 95.738281 250.722656 C 98.132812 250.378906 100.589844 250.28125 103.019531 250.332031 C 107.792969 250.425781 112.484375 250.863281 117.230469 251.195312 C 117.894531 251.242188 118.589844 251.292969 119.113281 251.476562 C 119.769531 251.707031 120.042969 252.113281 120.027344 252.511719 C 119.996094 253.183594 119.386719 254.039062 118.515625 254.625 C 117.785156 255.113281 116.875 255.542969 115.980469 255.980469 C 115.464844 256.230469 113.265625 257.058594 113.199219 257.363281 C 110.652344 268.921875 94.054688 269.632812 85.410156 263.832031 Z M 78.730469 259.363281 C 80 257.199219 82.429688 254.90625 84.609375 252.96875 C 85.257812 252.394531 86.988281 252.542969 86.914062 253.167969 C 86.636719 255.609375 85.359375 259.171875 82.410156 260.441406 C 80.585938 261.230469 78.082031 260.480469 78.730469 259.363281 Z M 77.738281 256.296875 C 74.984375 256.929688 51.144531 253.917969 60.960938 249.085938 C 63.777344 247.699219 74.515625 245.773438 79.394531 246.609375 C 80.125 246.730469 80.667969 247.003906 80.964844 247.335938 C 85.199219 252.082031 81.527344 255.421875 77.738281 256.296875 Z M 76.988281 261.925781 C 72.195312 262.214844 69.808594 260.121094 69.15625 258.519531 C 68.917969 257.925781 69.972656 257.320312 71.191406 257.347656 C 75.929688 257.445312 79.078125 259.035156 76.988281 261.925781 Z M 55.152344 266.953125 C 53.601562 266.828125 52.164062 266.402344 51.210938 265.839844 C 42.707031 260.859375 35.242188 257.488281 52.289062 256.300781 C 54.675781 255.789062 55.695312 254.546875 58.769531 254.964844 C 63.558594 255.609375 66.976562 257.320312 68.445312 259.980469 C 69.671875 261.195312 70.898438 262.414062 72.125 263.636719 C 67.890625 267.476562 60.453125 267.390625 55.152344 266.953125 Z M 53.738281 248.496094 C 50.761719 247.835938 48.078125 245.703125 46.652344 243.644531 C 46.375 243.25 46.511719 242.785156 47.015625 242.390625 C 53.492188 237.285156 56 239.390625 59.933594 241.902344 C 61.855469 243.128906 65.75 243.65625 67.429688 245.089844 C 68.203125 245.746094 67.519531 246.65625 65.945312 247.058594 C 61.488281 248.195312 56.25 249.050781 53.738281 248.496094 Z M 64.285156 228.535156 C 74.046875 226.230469 82.488281 230.128906 90.707031 234.390625 C 92.191406 235.160156 91.480469 236.425781 89.175781 236.890625 C 81.796875 238.382812 73.644531 239.175781 66.207031 239.234375 C 52.710938 239.339844 48.035156 232.546875 64.285156 228.535156 Z M 63.769531 224.972656 C 66.121094 219.320312 73.222656 214.855469 80.222656 210.140625 C 88.839844 208.703125 91.128906 209.773438 93.539062 212.46875 C 94.121094 213.117188 93.71875 213.898438 92.496094 214.460938 C 85.609375 217.628906 83.539062 219.6875 81.289062 224 C 81.015625 224.53125 80.253906 225.023438 79.175781 225.347656 C 72.746094 227.285156 69.570312 227.332031 63.769531 224.972656 Z M 62.199219 224.28125 C 61.707031 224.875 60.59375 225.375 59.210938 225.5625 C 57.515625 225.785156 56.121094 225.53125 54.59375 224.863281 C 56.15625 219.394531 60.117188 219.527344 53.027344 216.78125 C 52.019531 216.390625 53.027344 215.605469 54.445312 215.675781 C 58.046875 215.867188 61.429688 216.21875 65.109375 216.15625 C 67 216.121094 68.125 216.90625 67.34375 217.683594 C 65.214844 219.808594 64.0625 222.042969 62.199219 224.28125 Z M 53.394531 211.039062 C 52.742188 210.328125 51.910156 209.546875 50.957031 208.855469 C 46.570312 205.671875 56.738281 205.644531 64.140625 204.707031 C 70.878906 202.957031 73.808594 203.691406 75.425781 206.542969 C 75.039062 207.730469 75.445312 208.640625 76.503906 209.550781 C 77.121094 210.082031 77.117188 210.761719 76.453125 211.335938 C 70.128906 216.8125 59.078125 217.238281 53.394531 211.039062 Z M 68.65625 196.765625 C 67.585938 196.347656 67.480469 195.609375 68.335938 194.980469 C 70.953125 193.058594 74.941406 190.761719 79.117188 192.527344 C 79.761719 195.152344 86.605469 195.101562 77.980469 197.097656 C 75.792969 197.601562 71.039062 197.683594 68.65625 196.765625 Z M 85.007812 192.695312 C 89.433594 193.785156 105.632812 192.066406 104.347656 193.558594 C 101.714844 196.605469 88.160156 196.59375 81.261719 193.402344 C 81.597656 191.859375 83.175781 192.242188 85.007812 192.695312 Z M 110.3125 191.441406 C 111.292969 191.070312 112.128906 190.390625 112.613281 190.050781 C 117.089844 186.949219 139.589844 193.695312 136.402344 197.984375 C 133.171875 202.332031 119.71875 198.6875 111.902344 198.652344 C 109.132812 198.636719 106.539062 198.054688 105.269531 196.964844 C 101.9375 194.105469 105.695312 193.191406 110.3125 191.441406 Z M 130.542969 184.59375 C 131.597656 183.847656 133.417969 183.503906 134.957031 183.753906 C 139.457031 184.476562 142.824219 185.859375 146.167969 187.71875 C 147.230469 188.308594 147.195312 189.394531 146.078125 189.910156 C 142.789062 191.4375 119.914062 192.140625 130.542969 184.59375 Z M 149.210938 192.507812 C 159.777344 196.277344 170.472656 193.785156 167.984375 196.628906 C 167.5 197.183594 166.039062 197.5625 164.835938 197.523438 C 156.761719 197.253906 147.78125 198.085938 140.203125 194.464844 C 139.863281 194.300781 139.613281 194.09375 139.464844 193.867188 C 138.117188 191.824219 138.996094 192.203125 142.390625 191.726562 C 147.042969 191.070312 146.070312 191.382812 149.210938 192.507812 Z M 180.136719 184.65625 C 182.566406 186.753906 187.46875 187.722656 189.773438 189.191406 C 191.066406 190.015625 190 191.242188 188.054688 191.171875 C 185.152344 191.066406 182.554688 190.636719 179.484375 191.0625 C 178.332031 191.222656 178.007812 191.613281 178.117188 192.050781 C 178.289062 192.738281 177.1875 193.308594 175.871094 193.289062 C 171.273438 193.21875 168.90625 192.8125 168.710938 189.34375 C 166.082031 184.058594 174.429688 178.078125 180.136719 184.65625 Z M 201.734375 190.867188 C 207.296875 192.105469 211.21875 189.449219 212.554688 193.566406 C 211.71875 196.820312 208.449219 198.546875 201.832031 198.628906 C 196.136719 196.367188 193.636719 196.242188 192.617188 192.140625 C 191.570312 187.929688 186.65625 187.90625 186.015625 186.679688 C 185.460938 185.601562 195.558594 189.488281 201.734375 190.867188 Z M 199.695312 186.472656 C 201.746094 185.527344 217.078125 187.742188 217.105469 189.574219 C 217.125 191.085938 195.140625 189.527344 199.695312 186.472656 Z M 237.652344 193.035156 C 242.480469 195.808594 236.378906 196.082031 236.464844 198.09375 C 236.492188 198.769531 236.800781 199.105469 237.082031 199.425781 C 237.605469 200.015625 237.289062 200.644531 236.320312 200.957031 C 232.40625 202.222656 230.109375 202.757812 225.355469 201.273438 C 224.46875 200.996094 223.488281 200.808594 222.492188 200.757812 C 218.375 200.550781 214.726562 200.535156 211.179688 199.609375 C 209.664062 199.214844 209.148438 198.25 210.097656 197.636719 C 212.410156 196.148438 213.953125 194.550781 214.910156 192.511719 C 221.585938 187.820312 231.050781 189.25 237.652344 193.035156 Z M 243.683594 194.429688 C 244.933594 194.480469 245.96875 195.144531 245.664062 195.730469 C 244.949219 197.117188 243.589844 197.53125 242.132812 198.355469 C 241.289062 198.828125 239.511719 198.445312 239.324219 197.75 C 238.832031 195.90625 239.859375 194.289062 243.683594 194.429688 Z M 243.335938 207.8125 C 244.117188 207.65625 245.148438 207.523438 246.167969 207.597656 C 252.421875 208.070312 268.296875 209.417969 257.417969 211.507812 C 253.585938 211.628906 249.769531 211.992188 245.933594 212.050781 C 244.007812 212.078125 242.082031 212.039062 240.160156 211.839844 C 239.417969 211.765625 235.339844 211.984375 235.402344 210.726562 C 235.476562 209.089844 242.105469 208.054688 243.335938 207.8125 Z M 240.910156 201.765625 C 242.988281 202.082031 244.183594 203.867188 244.230469 205.46875 C 244.261719 206.507812 242.347656 207.105469 240.347656 206.710938 C 238.234375 206.292969 236.980469 205.375 235.46875 204.585938 C 232.101562 202.828125 232.417969 200.484375 240.910156 201.765625 Z M 227.03125 212.792969 C 218.707031 211.617188 203.394531 211.019531 199.992188 202.816406 C 199.691406 202.097656 200.265625 201.144531 201.503906 200.601562 C 205.320312 198.917969 210.617188 200.652344 214.554688 201.703125 C 222.214844 203.753906 227.269531 202.996094 234.402344 205.140625 C 239.15625 207.683594 237.535156 208.070312 232.929688 209.648438 C 232.203125 211.730469 233.449219 213.703125 227.03125 212.792969 Z M 241.480469 231.003906 C 240.96875 230.828125 234.707031 230.25 233.574219 230.082031 C 226.585938 229.070312 218.859375 229.175781 211.777344 227.8125 C 210.925781 227.644531 210.515625 226.632812 211.0625 225.953125 C 212.246094 224.480469 213.898438 223.402344 215.503906 222.550781 C 216.480469 222.03125 217.492188 221.253906 217.765625 220.347656 C 224.710938 197.234375 261.304688 237.753906 241.480469 231.003906 Z M 199.914062 239.738281 C 199.019531 238.929688 198.785156 238.039062 199.238281 237.207031 C 200.402344 235.070312 201.160156 233.0625 199.949219 230.898438 C 199.738281 230.515625 199.414062 229.964844 199.71875 229.597656 C 201.082031 227.949219 205.855469 233.074219 206.582031 233.410156 C 208.3125 234.210938 211.527344 234.261719 213.617188 234.964844 C 215.859375 235.714844 217.488281 236.667969 218.492188 237.800781 C 220.378906 239.925781 220.109375 242.378906 218.667969 244.523438 C 216.214844 248.167969 209.996094 248.796875 199.914062 239.738281 Z M 194.441406 245.421875 C 203.378906 245.710938 209.777344 244.917969 209.835938 250.777344 C 207.71875 253.019531 202.558594 251.65625 199.527344 250.402344 C 198.378906 249.925781 189.367188 245.253906 194.441406 245.421875 Z M 188.792969 235.179688 C 190.050781 234.765625 191.765625 234.667969 193.285156 234.933594 C 198.851562 235.90625 196.585938 238.523438 197.902344 241.234375 C 198.324219 242.105469 205.261719 244.917969 199.5 244.742188 C 193.738281 244.5625 189.703125 242.207031 187.027344 240.300781 C 184.097656 238.207031 184.269531 236.664062 188.792969 235.179688 Z M 165.382812 233.753906 C 164.632812 232.601562 163.925781 231.371094 163.484375 230.214844 C 162.773438 228.34375 165.179688 225.199219 169.585938 224.425781 C 172.992188 223.832031 180.28125 224.832031 182.679688 225.972656 C 189.753906 229.335938 195.203125 228.015625 194.074219 231.703125 C 193.828125 232.511719 192.570312 233.179688 190.777344 233.488281 C 183.972656 234.652344 184.164062 236.875 176.304688 238.324219 C 174.640625 238.628906 169.648438 236.941406 168.550781 236.441406 C 166.875 235.671875 166.019531 234.734375 165.382812 233.753906 Z M 164.535156 239.460938 C 163.613281 240.375 161.386719 240.929688 159.066406 240.816406 C 151.359375 240.441406 142.605469 239.171875 139.664062 235.929688 C 137.40625 233.449219 138.507812 230.648438 141.496094 228.382812 C 144.707031 225.957031 149.808594 224.523438 155.398438 223.359375 C 156.890625 223.050781 158.816406 222.632812 160.53125 222.71875 C 165.75 222.988281 161.128906 226.144531 161.160156 227.207031 C 161.277344 231.03125 168.441406 235.582031 164.535156 239.460938 Z M 97.394531 227.621094 C 102.710938 226.484375 107.527344 226.15625 112.035156 228.289062 C 110.023438 231.035156 106.867188 233.085938 103.84375 234.425781 C 102.183594 235.160156 99.300781 235.546875 97.214844 235.039062 C 92.527344 233.902344 88.121094 232.917969 85.683594 229.597656 C 89.429688 228.164062 93.332031 227.503906 97.394531 227.621094 Z M 105.941406 216.332031 C 107.003906 216.53125 108.25 216.617188 109.425781 216.59375 C 114.53125 216.496094 119.367188 216.527344 124.074219 218.332031 C 121.613281 221.554688 118.378906 223.066406 114.585938 224.921875 C 113.359375 225.523438 102.667969 225.40625 100.996094 225.613281 C 92.25 226.699219 88.960938 229.605469 83.71875 226.183594 C 82.972656 225.691406 82.738281 225.066406 83.015625 224.457031 C 87.074219 215.621094 97.496094 214.757812 105.941406 216.332031 Z M 141.394531 201.964844 C 145.171875 203.308594 145.097656 204.699219 142.027344 206.292969 C 139.847656 207.421875 136.4375 208.71875 139.414062 210.074219 C 141.503906 211.023438 144.484375 211.292969 147.285156 211.730469 C 148.636719 211.9375 148.296875 212.773438 146.832031 212.800781 C 146.816406 212.800781 146.8125 212.800781 146.796875 212.800781 C 145.207031 212.820312 143.632812 212.683594 142.132812 212.5 C 139.058594 212.121094 136.277344 211.472656 133.292969 211.039062 C 128.402344 210.324219 122.761719 210.425781 117.820312 211.34375 C 117.507812 211.398438 117.171875 211.425781 116.855469 211.394531 C 116.191406 211.332031 116.15625 211.101562 116.191406 210.957031 C 118.0625 203.617188 133.277344 199.09375 141.394531 201.964844 Z M 145.324219 199.5 C 141.570312 200.148438 133.757812 202.492188 138.539062 198.671875 C 139.71875 197.296875 140.082031 196.703125 143.335938 196.449219 C 147.601562 197.175781 155.070312 198.269531 145.324219 199.5 Z M 150.960938 205.015625 C 147.441406 203.75 146.316406 202.476562 143.539062 201.6875 C 142.207031 201.308594 142.777344 200.324219 144.359375 200.246094 C 155.121094 199.710938 160.855469 205.339844 150.960938 205.015625 Z M 168.757812 200.816406 C 167.699219 206.070312 162.050781 204.035156 156.117188 202.027344 C 154.757812 201.566406 153.863281 200.84375 153.816406 200.042969 C 153.625 196.925781 165.292969 196.730469 168.757812 200.816406 Z M 168.667969 196.820312 C 169.519531 194.277344 169.570312 193.785156 175.335938 194.113281 C 178.699219 194.304688 182.09375 195.125 184.171875 197.863281 C 179.535156 200.914062 173.066406 200.339844 168.667969 196.820312 Z M 196.015625 203.128906 C 192.253906 202.222656 190.023438 201.035156 188.03125 199.464844 C 187.332031 198.910156 187.898438 198.207031 189.152344 198.074219 C 192.015625 197.777344 194.984375 197.863281 197.933594 197.691406 C 200.925781 198.441406 198.980469 199.796875 198.476562 200.78125 C 197.8125 202.082031 198.679688 202.578125 196.015625 203.128906 Z M 186.996094 206.398438 C 181.671875 205.050781 175.617188 203.316406 171.308594 201.171875 C 169.9375 200.488281 171.167969 198.695312 172.753906 199.261719 C 181.933594 202.542969 183.238281 199.445312 189.148438 201.558594 C 194.089844 203.582031 199.449219 205.289062 201.648438 208.296875 C 194.28125 209.28125 192.246094 209.222656 186.996094 206.398438 Z M 197.664062 209.214844 C 204.179688 209.785156 215.773438 209.015625 218.558594 215.285156 C 218.769531 215.761719 217.613281 216.722656 217.300781 216.925781 C 216.371094 217.523438 215.644531 217.222656 214.589844 217.066406 C 212.042969 216.683594 209.488281 216.386719 206.945312 216.007812 C 204.335938 215.621094 201.734375 215.164062 199.183594 214.476562 C 198.546875 214.300781 192.089844 212.347656 192.246094 211.769531 C 192.859375 209.496094 194.667969 208.640625 197.664062 209.214844 Z M 155.230469 215.042969 C 151.800781 209.828125 144.238281 211.433594 142.398438 207.804688 C 141.984375 206.984375 143.25 206.136719 145.125 206.015625 C 150.9375 205.640625 155.722656 207.167969 157.070312 205.609375 C 157.910156 204.644531 160.410156 204.292969 162.289062 204.679688 C 177.980469 207.914062 167.875 221.019531 155.230469 215.042969 Z M 196.320312 214.894531 C 201.152344 215.539062 205.863281 216.464844 209.917969 218.730469 C 203.269531 219.765625 196.148438 218.800781 189.644531 217.214844 C 192.3125 215.453125 190.414062 214.566406 196.320312 214.894531 Z M 177.664062 218.003906 C 175.570312 217.945312 173.777344 217.335938 173.164062 216.472656 C 171.429688 214.019531 175.007812 211.613281 172.71875 208.96875 C 171.652344 207.742188 170.617188 206.167969 169.566406 204.765625 C 173.660156 201.644531 180.71875 205.191406 185.644531 206.730469 C 192.148438 211.585938 192.886719 218.457031 177.664062 218.003906 Z M 112.214844 215.128906 C 111.628906 211.273438 127.273438 210.648438 131.710938 212.578125 C 131.351562 215.238281 112.554688 217.375 112.214844 215.128906 Z M 145.128906 220.097656 C 143.726562 220.332031 142.183594 220.292969 140.691406 220.320312 C 137.769531 220.382812 134.851562 220.730469 132.230469 221.332031 C 130.660156 221.695312 124.652344 223.707031 122.992188 222.953125 C 121.855469 222.433594 123.152344 221.484375 123.765625 220.949219 C 126.351562 218.691406 129.640625 216.609375 132.671875 214.507812 C 133.210938 214.132812 133.769531 213.75 134.582031 213.476562 C 134.644531 213.457031 134.703125 213.4375 134.765625 213.421875 C 136.878906 212.816406 140.496094 213.371094 142.753906 213.414062 C 145.828125 213.476562 149.246094 213.542969 151.90625 214.269531 C 156.984375 215.664062 148.804688 219.492188 145.128906 220.097656 Z M 133.898438 236.40625 C 129.160156 238.417969 103.277344 239.652344 108.863281 232.617188 C 109.441406 231.886719 111.59375 231.402344 113.445312 231.480469 C 120.125 231.75 126.285156 232.738281 132.539062 233.824219 C 134.886719 234.234375 135.578125 235.6875 133.898438 236.40625 Z M 125.46875 231.589844 C 121.261719 232.019531 117.398438 231.199219 113.894531 229.132812 C 116.890625 225.546875 121.128906 224.335938 126.25 223.902344 C 133.402344 222.523438 143.648438 218.816406 150.359375 221.492188 C 147.460938 223.980469 144.167969 225.832031 140.488281 227.054688 C 135.246094 230.742188 136.394531 231.3125 125.46875 231.589844 Z M 210.539062 221.59375 C 208.429688 221.800781 205.578125 221.574219 203.355469 221.578125 C 200.710938 221.578125 198.066406 221.605469 195.4375 221.6875 C 192.929688 221.765625 190.433594 221.890625 187.976562 222.105469 C 185.765625 222.300781 183.414062 222.90625 181.246094 222.996094 C 173.050781 223.347656 160.433594 223.261719 153.113281 218.78125 C 155.746094 217.910156 158.464844 217.683594 161.273438 218.105469 C 166.335938 217.71875 170.605469 218.046875 175.230469 218.644531 C 186.160156 220.054688 211.144531 219.453125 211.765625 221.140625 C 211.789062 221.203125 211.109375 221.539062 210.539062 221.59375 Z M 222.652344 230.234375 C 225.785156 230.765625 226.035156 232.625 222.949219 233 C 216.839844 233.742188 207.867188 233.117188 208.1875 231.332031 C 208.785156 228.058594 216.441406 229.1875 222.652344 230.234375 Z M 208.710938 227.164062 C 208.144531 227.875 207.269531 229.167969 204.824219 228.820312 C 204.035156 228.707031 203.359375 228.484375 202.644531 228.296875 C 198.269531 227.167969 193.007812 228.050781 188.546875 227.222656 C 186.640625 226.871094 184.40625 225.71875 185.046875 224.78125 C 186.417969 222.785156 193.617188 222.804688 197.359375 222.433594 C 199.464844 222.222656 211.71875 221.5 211.683594 223.394531 C 211.675781 223.632812 211.410156 223.839844 211.160156 224.039062 C 209.957031 225.003906 209.550781 226.117188 208.710938 227.164062 Z M 193.445312 196.09375 C 194.421875 196.441406 193.890625 197.195312 192.726562 197.109375 C 182.296875 196.355469 172.753906 191.273438 189.28125 191.714844 C 190.34375 191.742188 191.160156 192.28125 190.957031 192.824219 C 190.332031 194.5 191.152344 195.269531 193.445312 196.09375 Z M 110.4375 200.464844 C 116.375 201.144531 122.214844 199.339844 123.875 201.246094 C 124.417969 201.871094 124.046875 202.617188 122.976562 203.152344 C 119.148438 205.0625 116.800781 207.46875 115.019531 209.867188 C 108.878906 214.015625 84.351562 213.695312 97.683594 205.175781 C 98.476562 200.828125 101.519531 199.4375 110.4375 200.464844 Z M 95.332031 197.125 C 95.738281 196.417969 97.589844 196.019531 98.8125 196.390625 C 103.703125 197.867188 105.03125 200.175781 96.003906 200.75 C 93.738281 200.890625 94.394531 198.773438 95.332031 197.125 Z M 88.582031 205.851562 C 88.769531 205.464844 89.371094 205.117188 90.183594 204.914062 C 91.300781 204.632812 92.300781 204.378906 93.175781 204.039062 C 93.660156 203.855469 94.363281 203.976562 94.367188 204.238281 C 94.386719 209.144531 85.964844 211.214844 88.582031 205.851562 Z M 80.027344 208.894531 C 79.21875 209.109375 78.21875 209.046875 77.761719 208.738281 C 76.53125 207.914062 76.089844 207.003906 76.175781 205.984375 C 76.226562 205.328125 77.65625 204.765625 79.160156 204.816406 C 87.984375 205.113281 87.492188 206.894531 80.027344 208.894531 Z M 75.890625 198.285156 C 90.117188 194.691406 95.527344 196.242188 93.3125 202.015625 C 92.902344 203.074219 90.867188 203.941406 88.472656 204.152344 C 82.710938 204.65625 76.402344 204.667969 70.753906 203.0625 C 69.675781 200.078125 71.390625 198.484375 75.890625 198.285156 Z M 89.328125 245.066406 C 88.523438 244.636719 88.371094 244.007812 88.914062 243.445312 C 90.59375 241.691406 92.28125 240 93.542969 238.269531 C 94.222656 237.335938 98.316406 236.84375 100.371094 236.996094 C 107.003906 237.492188 125.964844 238.996094 130.03125 245.792969 C 134.558594 253.363281 113.410156 249.207031 110.921875 248.746094 C 100.445312 247.410156 95.957031 248.597656 89.328125 245.066406 Z M 63.996094 242.160156 C 63.09375 241.667969 63.546875 240.855469 64.945312 240.53125 C 69.203125 239.539062 73.34375 240.898438 78.707031 240.21875 C 84.960938 239.050781 92.074219 236.726562 89.425781 241.246094 C 89.277344 241.5 88.980469 241.742188 88.601562 241.953125 C 80.8125 246.265625 71.8125 246.410156 63.996094 242.160156 Z M 85.21875 245.800781 C 86.769531 245.851562 88.3125 246.226562 88.921875 246.832031 C 90.015625 247.921875 101.601562 248.484375 101.152344 249.191406 C 100.644531 249.984375 92.007812 251.28125 85.90625 250.21875 C 81.921875 249.523438 84.417969 248.355469 83.117188 247.183594 C 82.414062 246.554688 83.644531 245.75 85.21875 245.800781 Z M 139.710938 251.253906 C 139.03125 251.398438 138.476562 251.632812 137.808594 251.664062 C 131.304688 251.976562 131.328125 249.339844 131.839844 246.988281 C 132.074219 245.898438 134.496094 245.148438 136.796875 245.441406 C 144.722656 246.460938 152.929688 248.464844 139.710938 251.253906 Z M 144.59375 246.21875 C 139.039062 244.902344 132.125 244.238281 127.457031 242.472656 C 121.542969 240.230469 131.199219 238.503906 135.347656 237.707031 C 135.855469 237.605469 136.378906 237.507812 136.929688 237.484375 C 141.386719 237.320312 145.339844 240.671875 149.789062 241.179688 C 154.625 241.730469 161.21875 242.605469 164.164062 244.589844 C 164.96875 245.136719 164.664062 246.054688 162.714844 245.882812 C 158.324219 245.507812 154.210938 245.085938 149.769531 246.164062 C 148.136719 246.566406 146.191406 246.601562 144.59375 246.21875 Z M 246.09375 243.046875 C 247.089844 245.878906 250.386719 245.570312 247.457031 248.179688 C 244.941406 249.160156 241.847656 250.3125 238.035156 249.234375 C 237.652344 249.125 237.28125 248.996094 236.851562 248.941406 C 236.304688 248.871094 235.746094 248.925781 235.21875 248.984375 C 231.691406 249.378906 228.191406 250.066406 224.503906 250.285156 C 220.082031 250.550781 219.058594 248.90625 218.433594 247.28125 C 217.699219 245.378906 223.351562 245.050781 224.101562 243.566406 C 225.550781 240.707031 222.632812 239.164062 223.097656 236.382812 C 229.988281 229.679688 240.945312 231.277344 248.011719 236.640625 C 255.167969 242.078125 244.703125 239.085938 246.09375 243.046875 Z M 256.925781 243.382812 C 255.769531 243.925781 250.542969 246.203125 248.625 244.636719 C 247.769531 243.9375 249.066406 242.863281 249.675781 242.324219 C 250.421875 241.671875 251.242188 241.058594 252.0625 240.429688 C 252.636719 239.988281 253.320312 239.5625 254.328125 239.316406 C 256.417969 238.792969 260.242188 239.417969 260.484375 240.632812 C 260.695312 241.683594 258.367188 242.699219 256.925781 243.382812 Z M 256.253906 254.273438 C 252.691406 254.433594 249.761719 252.933594 248.019531 251.222656 C 247.125 250.34375 247.894531 249.394531 249.71875 249.0625 C 254.203125 248.246094 255.9375 250.160156 258.300781 252.375 C 259.210938 253.234375 258.234375 254.183594 256.253906 254.273438 Z M 262.710938 240.652344 C 262.902344 240.582031 263.167969 240.550781 263.421875 240.523438 C 266 240.246094 270.660156 239.371094 273.574219 240.09375 C 276.332031 240.777344 275.867188 242.65625 275.800781 243.652344 C 275.75 244.375 274.214844 244.851562 272.496094 244.632812 C 270.007812 244.324219 266.824219 244.273438 264.519531 243.625 C 262.695312 243.113281 261.085938 241.277344 262.710938 240.652344 Z M 287.992188 252.011719 C 278.433594 257.109375 264.898438 255.84375 256.929688 248.5 C 258.195312 238.539062 282.9375 246.355469 287.992188 252.011719 Z M 261.882812 200.609375 C 265.46875 201.75 268.175781 203.25 264.339844 205.515625 C 256.949219 207.519531 246.136719 208.011719 243.027344 201.3125 C 242.476562 200.121094 244.5 198.652344 247.425781 198.621094 C 252.480469 198.566406 257.886719 199.339844 261.882812 200.609375 Z M 252.59375 194.113281 C 254.382812 194.285156 255.75 195.59375 256.21875 197.453125 C 256.386719 198.097656 255.367188 198.554688 254.070312 198.425781 C 253.027344 198.320312 247.488281 198.175781 247.203125 196.578125 C 246.917969 194.976562 250.636719 194.253906 251.648438 194.128906 C 251.972656 194.089844 252.289062 194.085938 252.59375 194.113281 Z M 270.410156 188.617188 C 271.925781 188.824219 273.40625 189.414062 274.171875 190.203125 C 275.765625 191.839844 276.738281 193.515625 278.386719 195.105469 C 286.179688 200.414062 276.257812 199.609375 268.976562 200.589844 C 268.132812 200.707031 267.195312 200.703125 266.261719 200.578125 C 260.652344 199.832031 258.449219 199.304688 257.980469 196.527344 C 257.875 195.890625 257.519531 195.324219 256.964844 194.992188 C 246.171875 188.566406 266.664062 188.101562 270.410156 188.617188 Z M 295.855469 181.441406 C 293.0625 183.179688 292.242188 188.023438 291.128906 190.164062 C 282.117188 190.984375 270.804688 186.597656 276.113281 181.574219 C 269.050781 183.078125 270.855469 184.953125 275.3125 187.085938 C 276.484375 187.644531 275.976562 188.550781 274.5625 188.394531 C 269.917969 187.886719 265.464844 187.101562 260.976562 187.019531 C 259.640625 186.996094 258.484375 186.210938 258.808594 185.53125 C 259.542969 183.996094 259.695312 182.355469 259.710938 180.546875 C 257.714844 184.824219 254.34375 188.414062 251.039062 191.941406 C 249.925781 193.128906 247.414062 193.738281 244.683594 193.4375 C 241.359375 193.070312 237.875 192.175781 236.09375 191.246094 C 229.277344 187.699219 235.136719 188.246094 237.675781 185.605469 C 238.113281 183.515625 238.304688 181.210938 233.964844 180.171875 C 239.441406 191.714844 212.355469 186.917969 205.664062 185.574219 C 204.722656 185.386719 203.859375 184.933594 203.15625 184.277344 C 202.304688 183.480469 201.210938 182.539062 201.039062 182.839844 C 198.894531 186.601562 198.4375 187.492188 193.546875 186.464844 C 192.3125 186.203125 191.023438 186.054688 189.734375 186.03125 C 184.945312 185.941406 181.164062 186.179688 181.992188 182.429688 C 179.40625 182.207031 169.859375 180.652344 168.679688 182.0625 C 166.140625 185.371094 166.613281 188.011719 166.859375 191.300781 C 165.902344 196.054688 157.894531 193.757812 151.898438 192.527344 C 150.722656 192.285156 149.898438 191.753906 149.707031 191.101562 C 148.574219 187.210938 148.808594 184.835938 153.820312 181.015625 C 151.59375 181.039062 150.484375 181.050781 148.25 181.074219 C 149.042969 181.265625 149.824219 181.472656 150.597656 181.722656 C 148.820312 183.199219 149.25 185.605469 145.015625 185.058594 C 142.285156 184.707031 139.296875 182.46875 136.859375 181.191406 C 135.15625 181.261719 133.785156 181.316406 132.085938 181.386719 C 123.03125 186.9375 114.382812 185.804688 106.328125 182.085938 C 104.648438 181.308594 115.738281 189.292969 109.035156 190.074219 C 99.402344 191.199219 88.78125 192.832031 79.53125 190.839844 C 75.871094 190.054688 74.585938 187.652344 78.503906 184.695312 C 79.496094 183.945312 83.859375 182.53125 82.472656 182.3125 C 81.085938 182.09375 76.183594 184.921875 72.332031 185.738281 C 63.355469 187.652344 53.089844 188.234375 52.738281 188.988281 C 52.4375 189.65625 64.429688 187.296875 69.667969 187.980469 C 72.835938 188.390625 73.675781 190.246094 67.964844 193.664062 C 67.398438 194.003906 66.21875 194.402344 65.335938 194.527344 C 56.40625 195.8125 49.332031 193.066406 49.589844 195.21875 C 56.890625 196.574219 63.605469 194.878906 69.535156 198.019531 C 70.417969 198.488281 70.339844 199.199219 69.476562 199.785156 C 61.976562 204.886719 52.789062 206.980469 44.492188 201.886719 C 44.269531 202.386719 44.15625 202.636719 43.933594 203.136719 C 50.464844 205.273438 51.695312 206.789062 41.738281 208.136719 C 41.730469 208.226562 41.734375 208.210938 41.726562 208.300781 C 48.925781 209.917969 53.507812 209.261719 50.777344 213.792969 C 47.640625 215.011719 43.378906 213.949219 40.03125 213.785156 C 44.570312 214.578125 48.617188 215.886719 51.410156 219.152344 C 46.511719 221.710938 41.320312 222.472656 35.601562 222.558594 C 35.585938 222.589844 35.582031 222.605469 35.566406 222.636719 C 43.015625 222.46875 50.503906 222.683594 52.710938 224.773438 C 53.59375 225.605469 52.425781 226.695312 50.265625 227.066406 C 45.117188 227.953125 40.023438 228.050781 35.023438 229.003906 C 43.675781 228.984375 52.300781 226.695312 60.707031 226.582031 C 62.714844 226.554688 63.535156 227.71875 62.03125 228.378906 C 52.683594 232.476562 41.5625 230.988281 31.433594 232.933594 C 31.285156 233.308594 31.210938 233.496094 31.066406 233.875 C 37.710938 233.015625 45.25 231.359375 48.441406 233.957031 C 48.996094 234.410156 49.101562 235.003906 48.996094 235.53125 C 46.882812 245.960938 35.171875 242.628906 27.523438 243.148438 C 27.394531 243.496094 27.328125 243.667969 27.199219 244.015625 C 31.558594 244.101562 51.363281 244.699219 52.703125 251.203125 C 53.976562 257.386719 44.683594 255.851562 40.34375 254.652344 C 37.34375 253.101562 32.488281 250.828125 27.78125 249.738281 C 27.082031 249.578125 26.347656 250.128906 26.941406 250.371094 C 31.445312 252.214844 33.453125 255.167969 23.863281 256.6875 C 26.34375 257.46875 31.539062 256.269531 33.046875 254.964844 C 33.882812 254.246094 35.714844 254.085938 36.601562 254.640625 C 43.796875 259.117188 33.414062 260.753906 21.664062 262.125 C 29.25 261.695312 38.832031 261.046875 45.964844 264.046875 C 48.035156 264.914062 46.398438 267.011719 43.511719 267.113281 C 40.257812 267.230469 35.839844 267.761719 32.253906 268.070312 C 31.035156 268.175781 29.855469 268.113281 28.796875 267.894531 C 25.589844 267.222656 18.984375 266.0625 20.652344 266.503906 C 27.65625 268.355469 29.089844 270.566406 27.644531 273.15625 C 28.429688 273.832031 28.308594 273.726562 29.089844 274.40625 C 31.191406 272.964844 31.867188 270.992188 33.390625 269.152344 C 43.988281 267.464844 48.71875 271.863281 55.742188 275.472656 C 56.195312 274.859375 56.082031 275.011719 56.535156 274.398438 C 54.042969 271.941406 50.207031 269.457031 46.707031 268.675781 C 52.621094 267.949219 57.292969 269.160156 62.71875 269.089844 C 65.476562 269.054688 67.644531 270.085938 67.714844 271.59375 C 67.757812 272.511719 67.886719 273.523438 68.03125 274.515625 C 68.996094 274.414062 68.589844 274.453125 69.554688 274.355469 C 69.472656 272.792969 69.351562 271.382812 69.546875 271.023438 C 72.039062 266.476562 73.347656 257.773438 86.734375 266.550781 C 92.902344 270.597656 87.4375 270.222656 84.050781 274.554688 C 84.050781 274.554688 84.054688 274.554688 84.054688 274.558594 C 85.449219 274.5625 86.148438 274.5625 87.546875 274.566406 C 94.28125 264.933594 111.738281 267.832031 121.257812 270.167969 C 123.65625 270.753906 124.179688 272.1875 123.886719 273.75 C 124.761719 274.199219 124.695312 274.164062 125.566406 274.609375 C 129.160156 270.902344 130.304688 267.949219 136.777344 270.320312 C 139.800781 271.425781 143.554688 272.003906 147.425781 272.078125 C 152.324219 272.175781 155.882812 272.691406 160.664062 274.554688 C 164.0625 274.546875 165.761719 274.542969 169.164062 274.535156 C 168.503906 274.097656 167.875 273.691406 167.257812 273.355469 C 163.589844 271.347656 158.535156 270.121094 154.117188 268.734375 C 150.140625 267.488281 145.398438 265.953125 144.257812 263.648438 C 143.792969 262.710938 143.339844 261.28125 145.714844 260.816406 C 151.03125 259.777344 156.640625 259.140625 161.785156 258.03125 C 162.882812 257.796875 163.039062 257.496094 163.277344 256.984375 C 163.480469 256.546875 164.183594 256.167969 165.085938 256 C 166.984375 255.660156 169.894531 256.425781 171.542969 256.839844 C 173.484375 257.328125 175.71875 257.867188 177.183594 258.664062 C 179.132812 259.730469 179.5 261.183594 180.136719 262.535156 C 180.949219 264.242188 181.957031 267.152344 182.40625 268.988281 C 182.839844 270.757812 183.175781 272.640625 182.851562 274.503906 C 184.601562 274.5 185.472656 274.5 187.21875 274.492188 C 187.117188 274.328125 187.042969 274.164062 187.039062 273.984375 C 186.886719 268.953125 184.695312 264.246094 181.160156 260.15625 C 179.3125 258.859375 176.488281 257.648438 174.882812 256.316406 C 173.472656 255.148438 176.28125 253.90625 178.847656 254.480469 C 183.789062 255.578125 212.871094 267.796875 198.550781 274.464844 C 201.167969 274.457031 202.472656 274.449219 205.089844 274.445312 C 204.738281 274.109375 204.5625 273.726562 204.652344 273.332031 C 206.269531 266.445312 216.664062 267.933594 223.953125 271.121094 C 225.570312 271.832031 225.648438 273.089844 224.027344 273.695312 C 223.316406 273.960938 222.488281 274.191406 221.570312 274.394531 C 225.117188 274.382812 226.886719 274.378906 230.417969 274.367188 C 236.445312 260.328125 257.859375 270.769531 267.183594 274.253906 C 268.222656 274.253906 268.738281 274.253906 269.773438 274.25 C 257.839844 270.175781 252.554688 262.320312 269.832031 261.402344 C 270.960938 261.339844 272.25 261.304688 273.476562 261.421875 C 284.128906 262.398438 303.207031 262.339844 308.710938 274.152344 C 311.300781 274.148438 312.589844 274.144531 315.140625 274.140625 C 322.007812 269.0625 332.765625 266.09375 332.070312 260.640625 C 325.828125 270.273438 317.65625 270.605469 307.371094 268.5625 C 302.542969 265.503906 298.242188 264.070312 298.863281 261.164062 C 299.316406 259.046875 306.867188 259.8125 308.65625 259.683594 C 316.097656 259.148438 324.292969 257.707031 331.875 258.390625 C 326.835938 256.480469 320.914062 255.296875 317.339844 251.191406 C 319.628906 248.828125 322.535156 247.664062 326.050781 247.699219 C 327.894531 244.820312 318.195312 248.777344 314.363281 250.445312 C 313.570312 250.792969 312.070312 250.710938 311.289062 250.222656 C 309.859375 249.328125 308.359375 248.082031 306.894531 247.007812 C 311.519531 243.023438 319.828125 244.839844 325.882812 245.773438 C 318.203125 243.179688 309.539062 244.457031 302.605469 240.40625 C 289.035156 232.46875 319.246094 234.273438 320.503906 234.492188 C 321.027344 234.578125 321.328125 234.316406 320.851562 234.152344 C 318.714844 233.4375 316.304688 232.96875 314.050781 232.292969 C 313.070312 231.992188 312.304688 231.566406 311.867188 231.101562 C 309.332031 228.417969 309.625 226.921875 317.464844 227.265625 C 315.171875 226.5625 312.742188 226.367188 310.359375 225.988281 C 309.015625 225.777344 309.347656 225.074219 310.503906 224.882812 C 312.558594 224.546875 315.152344 223.746094 315.992188 222.691406 C 313.179688 223.425781 311.515625 224.285156 308.800781 224.839844 C 308.167969 224.96875 307.40625 224.992188 306.632812 224.925781 C 296.695312 224.089844 289.929688 225.777344 284.320312 225.128906 C 275.214844 224.070312 265.839844 220.242188 273.136719 218.566406 C 280.769531 216.816406 290.535156 221.003906 299.539062 219.652344 C 307.1875 218.5 323.398438 220.765625 314.523438 218.789062 C 295.667969 218.347656 306.207031 214.582031 312.03125 212.753906 C 308.933594 208.652344 302.0625 206.996094 295.015625 204.320312 C 294.21875 204.023438 294.054688 202.949219 294.730469 202.425781 C 297.328125 200.433594 304.710938 204.023438 303.003906 198.011719 C 302.671875 196.839844 306.984375 198.726562 308.316406 197.574219 C 304.816406 195.058594 299.359375 194.265625 295.019531 192.128906 C 292.820312 188.628906 294.746094 186.40625 301.175781 188.53125 C 302.089844 188.921875 303.941406 189.613281 305.4375 189.78125 C 305.195312 189.238281 305.074219 188.960938 304.828125 188.410156 C 299.796875 187.410156 293.714844 188.265625 295.855469 181.441406 "
          fill-opacity="1" fill-rule="nonzero"/>
    <g clip-path="url(#239c0f338a)">
        <path fill="#bfbfbf"
              d="M 307.003906 177.753906 L 48.488281 177.753906 L 0 283.828125 L 0.00390625 289.257812 L 355.484375 289.257812 L 355.472656 283.769531 Z M 299.21875 183.480469 L 338.453125 278.621094 L 17.039062 278.621094 L 56.273438 183.480469 L 299.21875 183.480469 "
              fill-opacity="1" fill-rule="nonzero"/>
    </g>
    <g clip-path="url(#6f84de2013)">
        <path fill="#f4f4f4"
              d="M 307 172.339844 L 48.488281 172.339844 L 0.00390625 283.847656 L 355.484375 283.847656 Z M 300.035156 179.703125 L 339.269531 273.207031 L 16.21875 273.207031 L 55.449219 179.703125 L 300.035156 179.703125 "
              fill-opacity="1" fill-rule="nonzero"/>
    </g>
</svg>
